#!OML:ASF E:\Mandelcareful walks\Project 1\Capture day 1\Session 1\Subject1.ASF
:FULLY-SPECIFIED
:DEGREES
1276
root 6.09435 12.8468 -8.30457 616.966 -76.628 839.373
lowerback 43.3079 -0.171027 6.62899
upperback 10.1628 1.01844 -0.774737
thorax -8.80388 -0.0865886 -4.57992
lowerneck -19.6637 20.8633 12.1631
upperneck 17.2854 32.1242 -23.4186
head 15.6171 12.7959 -3.415
rclavicle 3.81667e-014 -7.95139e-015
rhumerus -33.5715 25.5139 -81.0977
rradius 73.9269
rwrist -84.4296
rhand 6.83721 -27.4912
rfingers 7.12502
rthumb 32.1207 -774.673
lclavicle 3.81667e-014 -7.95139e-015
lhumerus 100.85 -74.4742 -8.51116
lradius 66.8723
lwrist 7.85358
lhand -29.1214 -11.9717
lfingers 7.12502
lthumb -2.46899 17.9938
rfemur -53.9578 -14.6382 -13.182
rtibia 85.2926
rfoot -30.6262 -20.6703
rtoes -27.362
lfemur -71.5031 13.9863 -16.2898
ltibia 76.1738
lfoot -13.463 -2.67887
ltoes -22.9987
1277
root 6.03542 12.8474 -8.20976 617.672 -77.1975 838.682
lowerback 43.207 -0.0641684 6.54595
upperback 10.1395 1.10713 -0.86762
thorax -8.79624 -0.040002 -4.67665
lowerneck -20.8773 20.2016 11.3463
upperneck 17.4878 31.0822 -22.7209
head 15.3978 12.2496 -3.33099
rclavicle -1.11319e-014 1.59028e-015
rhumerus -33.4057 25.476 -81.3106
rradius 72.8494
rwrist -84.3169
rhand 6.04959 -32.858
rfingers 7.12502
rthumb 31.3706 -780.188
lclavicle -1.11319e-014 1.59028e-015
lhumerus 101.782 -74.308 -9.37406
lradius 66.4439
lwrist 7.77988
lhand -27.2163 -10.9422
lfingers 7.12502
lthumb -0.629042 19.0366
rfemur -53.1607 -14.1459 -13.1929
rtibia 84.7667
rfoot -30.5409 -21.4367
rtoes -27.1666
lfemur -71.8458 13.8454 -16.2848
ltibia 76.7601
lfoot -13.7474 -2.97516
ltoes -21.7009
1278
root 5.9682 12.8502 -8.1145 618.524 -77.6187 837.7
lowerback 43.2053 0.0115189 6.27492
upperback 10.1658 1.07324 -0.950213
thorax -8.78102 -0.052074 -4.61274
lowerneck -22.6571 19.2261 10.2826
upperneck 17.9752 29.6414 -21.7865
head 15.2639 11.4698 -3.21499
rclavicle 4.6118e-014 2.54444e-014
rhumerus -33.1977 25.5898 -81.5021
rradius 71.8301
rwrist -84.2516
rhand 7.03104 -30.1771
rfingers 7.12502
rthumb 32.3052 -777.321
lclavicle 4.6118e-014 2.54444e-014
lhumerus 102.522 -73.931 -10.2061
lradius 66.1723
lwrist 7.64821
lhand -25.3856 -9.53941
lfingers 7.12502
lthumb 1.13918 20.4373
rfemur -51.9946 -13.8065 -13.4477
rtibia 84.1228
rfoot -30.7074 -21.6624
rtoes -27.2349
lfemur -71.9142 13.5929 -16.3861
ltibia 77.364
lfoot -14.0968 -3.0912
ltoes -20.1151
1279
root 5.90281 12.8591 -8.02462 619.128 -77.9812 836.798
lowerback 43.457 0.0824402 5.8979
upperback 10.2353 0.983766 -1.03774
thorax -8.79771 -0.0956246 -4.47438
lowerneck -25.0937 17.7918 8.73773
upperneck 18.7311 27.5774 -20.2773
head 15.0943 10.3939 -2.96624
rclavicle -2.38542e-014 1.74931e-014
rhumerus -32.7715 25.8503 -81.7012
rradius 70.5768
rwrist -84.3812
rhand 7.56199 -28.3831
rfingers 7.12502
rthumb 32.8105 -775.423
lclavicle -2.38542e-014 1.74931e-014
lhumerus 103.335 -73.3821 -11.1681
lradius 65.9738
lwrist 7.69645
lhand -25.1527 -8.79667
lfingers 7.12502
lthumb 1.36413 21.1787
rfemur -50.6662 -13.4832 -13.7298
rtibia 83.4296
rfoot -30.8785 -21.7124
rtoes -27.4572
lfemur -71.7108 13.3324 -16.44
ltibia 77.9416
lfoot -14.5518 -3.26643
ltoes -18.5181
1280
root 5.84997 12.8535 -7.93545 618.669 -78.5444 837.229
lowerback 43.5785 0.171836 5.63066
upperback 10.226 0.971284 -1.09962
thorax -8.85393 -0.104514 -4.39852
lowerneck -28.0651 15.7097 6.28853
upperneck 19.7127 24.6815 -17.6818
head 14.7281 9.00896 -2.37409
rclavicle 4.13472e-014 -1.03368e-014
rhumerus -32.374 26.2835 -81.9238
rradius 69.2014
rwrist -84.5789
rhand 8.14706 -28.181
rfingers 7.12502
rthumb 33.3668 -775.103
lclavicle 4.13472e-014 -1.03368e-014
lhumerus 104.285 -72.8386 -12.2029
lradius 65.7677
lwrist 8.02805
lhand -24.6465 -7.92467
lfingers 7.12502
lthumb 1.85294 22.047
rfemur -49.9526 -13.2177 -13.5905
rtibia 82.8521
rfoot -30.9761 -21.6251
rtoes -27.3255
lfemur -71.9157 13.3051 -16.1977
ltibia 78.578
lfoot -15.016 -3.52595
ltoes -17.2845
1281
root 5.79823 12.8442 -7.84389 617.795 -79.1036 838.147
lowerback 43.5622 0.236258 5.29813
upperback 10.1849 0.906161 -1.1235
thorax -8.91441 -0.136892 -4.22637
lowerneck -30.8565 12.9001 3.15944
upperneck 20.6724 20.9522 -14.2808
head 14.2012 7.38621 -1.54293
rclavicle -4.29375e-014 -8.74653e-015
rhumerus -32.0862 26.9944 -82.0989
rradius 67.9612
rwrist -84.6085
rhand 8.75651 -28.4311
rfingers 7.12502
rthumb 33.946 -775.227
lclavicle -4.29375e-014 -8.74653e-015
lhumerus 104.708 -72.4198 -12.6063
lradius 65.4739
lwrist 8.14978
lhand -22.6035 -6.78189
lfingers 7.12502
lthumb 3.82596 23.1635
rfemur -49.4177 -13.0767 -13.381
rtibia 82.2149
rfoot -30.8664 -21.5263
rtoes -27.3591
lfemur -72.1827 13.2745 -15.9316
ltibia 79.1818
lfoot -15.502 -3.58096
ltoes -17.038
